<?xml version="1.0" encoding="iso-8859-1"?>
<!-- Uploaded to: SVG Repo, www.svgrepo.com, Generator: SVG Repo Mixer Tools -->
<svg fill="#000000" version="1.1" id="Capa_1" xmlns="http://www.w3.org/2000/svg" xmlns:xlink="http://www.w3.org/1999/xlink" 
	 viewBox="0 0 490 490" xml:space="preserve">
<g>
	<g>
		<g>
			<path d="M118.6,490h252.8V327.8H118.6V490z M155.6,354.7h178.9c5.4,0,10.1,4.3,10.1,10.1c0,5.8-4.3,10.1-10.1,10.1H155.6
				c-5.4,0-10.1-4.3-10.1-10.1C145.4,358.9,150.1,354.7,155.6,354.7z M155.6,395.9h178.9c5.4,0,10.1,4.3,10.1,10.1
				c0,5.8-4.7,10.1-10.1,10.1H155.6c-5.4,0-10.1-4.3-10.1-10.1C145.4,400.2,150.1,395.9,155.6,395.9z M155.6,437.5h178.9
				c5.4,0,10.1,4.3,10.1,10.1c0,5.8-4.3,10.1-10.1,10.1H155.6c-5.4,0-10.1-4.3-10.1-10.1C145.4,441.8,150.1,437.5,155.6,437.5z"/>
			<path d="M458.5,104.2h-427C14,104.2,0,118.2,0,135.7v189.8C0,343,14,357,31.5,357h67.3v-49h292.4v49h67.3
				c17.5,0,31.5-14,31.5-31.5V135.7C490,118.6,476,104.2,458.5,104.2z M365.9,167.6h-17.1c-5.4,0-10.1-4.3-10.1-10.1
				s4.3-10.1,10.1-10.1h17.1c5.4,0,10.1,4.3,10.1,10.1S371.4,167.6,365.9,167.6z M425.8,181.6c-13.2,0-23.7-10.9-23.7-23.7
				c0-13.2,10.9-23.7,23.7-23.7s23.7,10.9,23.7,23.7C449.9,171.1,439.1,181.6,425.8,181.6z"/>
			<rect x="118.6" width="252.8" height="84.4"/>
		</g>
	</g>
</g>
</svg>